{
 "cells": [
  {
   "cell_type": "code",
   "execution_count": 3,
   "metadata": {},
   "outputs": [
    {
     "name": "stdout",
     "output_type": "stream",
     "text": [
      "The autoreload extension is already loaded. To reload it, use:\n",
      "  %reload_ext autoreload\n"
     ]
    }
   ],
   "source": [
    "from pathlib import Path\n",
    "from tqdm import tqdm\n",
    "from src.mp3_converter import MP3Converter\n",
    "%load_ext autoreload\n",
    "%autoreload 2"
   ]
  },
  {
   "cell_type": "code",
   "execution_count": 4,
   "metadata": {},
   "outputs": [],
   "source": [
    "def filter_filepaths(filepaths):\n",
    "    filepaths =  [filepath for filepath in filepaths if 'REC' in str(filepath)]\n",
    "    return filepaths"
   ]
  },
  {
   "cell_type": "code",
   "execution_count": 5,
   "metadata": {},
   "outputs": [],
   "source": [
    "DIR = Path().absolute().parent.parent.parent.joinpath('Music/Soulseek Songs')\n",
    "music_file_extensions = ['m4a','opus', 'wav', 'flac', 'aiff']\n",
    "filepaths = [elem for elem in list(DIR.rglob('*')) if elem.suffix[1:] in music_file_extensions]"
   ]
  },
  {
   "cell_type": "code",
   "execution_count": 6,
   "metadata": {},
   "outputs": [
    {
     "name": "stderr",
     "output_type": "stream",
     "text": [
      "  0%|          | 0/9 [00:00<?, ?it/s]"
     ]
    },
    {
     "name": "stdout",
     "output_type": "stream",
     "text": [
      "/Users/deniz/Music/Soulseek Songs/____ Lex Wolf - _You See I'm Ready_ ____.flac\n"
     ]
    },
    {
     "name": "stderr",
     "output_type": "stream",
     "text": [
      "ffmpeg version 6.1.1 Copyright (c) 2000-2023 the FFmpeg developers\n",
      "  built with Apple clang version 15.0.0 (clang-1500.3.9.4)\n",
      "  configuration: --prefix=/opt/homebrew/Cellar/ffmpeg/6.1.1_6 --enable-shared --enable-pthreads --enable-version3 --cc=clang --host-cflags= --host-ldflags='-Wl,-ld_classic' --enable-ffplay --enable-gnutls --enable-gpl --enable-libaom --enable-libaribb24 --enable-libbluray --enable-libdav1d --enable-libharfbuzz --enable-libjxl --enable-libmp3lame --enable-libopus --enable-librav1e --enable-librist --enable-librubberband --enable-libsnappy --enable-libsrt --enable-libssh --enable-libsvtav1 --enable-libtesseract --enable-libtheora --enable-libvidstab --enable-libvmaf --enable-libvorbis --enable-libvpx --enable-libwebp --enable-libx264 --enable-libx265 --enable-libxml2 --enable-libxvid --enable-lzma --enable-libfontconfig --enable-libfreetype --enable-frei0r --enable-libass --enable-libopencore-amrnb --enable-libopencore-amrwb --enable-libopenjpeg --enable-libopenvino --enable-libspeex --enable-libsoxr --enable-libzmq --enable-libzimg --disable-libjack --disable-indev=jack --enable-videotoolbox --enable-audiotoolbox --enable-neon\n",
      "  libavutil      58. 29.100 / 58. 29.100\n",
      "  libavcodec     60. 31.102 / 60. 31.102\n",
      "  libavformat    60. 16.100 / 60. 16.100\n",
      "  libavdevice    60.  3.100 / 60.  3.100\n",
      "  libavfilter     9. 12.100 /  9. 12.100\n",
      "  libswscale      7.  5.100 /  7.  5.100\n",
      "  libswresample   4. 12.100 /  4. 12.100\n",
      "  libpostproc    57.  3.100 / 57.  3.100\n",
      "Input #0, flac, from '/Users/deniz/Music/Soulseek Songs/____ Lex Wolf - _You See I'm Ready_ ____.flac':\n",
      "  Metadata:\n",
      "    major_brand     : dash\n",
      "    minor_version   : 0\n",
      "    compatible_brands: iso6mp41\n",
      "    encoder         : Lavf56.15.102\n",
      "  Duration: 00:07:35.95, start: 0.000000, bitrate: 857 kb/s\n",
      "  Stream #0:0: Audio: flac, 44100 Hz, stereo, s16\n",
      "Stream mapping:\n",
      "  Stream #0:0 -> #0:0 (flac (native) -> mp3 (libmp3lame))\n",
      "Press [q] to stop, [?] for help\n",
      "Output #0, mp3, to '/Users/deniz/Music/Soulseek Songs/____ Lex Wolf - _You See I'm Ready_ ____.mp3':\n",
      "  Metadata:\n",
      "    major_brand     : dash\n",
      "    minor_version   : 0\n",
      "    compatible_brands: iso6mp41\n",
      "    TSSE            : Lavf60.16.100\n",
      "  Stream #0:0: Audio: mp3, 44100 Hz, stereo, s16p, 320 kb/s\n",
      "    Metadata:\n",
      "      encoder         : Lavc60.31.102 libmp3lame\n",
      "[out#0/mp3 @ 0x14f111490] video:0kB audio:17812kB subtitle:0kB other streams:0kB global headers:0kB muxing overhead: 0.006480%\n",
      "size=   17813kB time=00:07:35.94 bitrate= 320.1kbits/s speed=99.6x    \n",
      "sh: -c: line 0: unexpected EOF while looking for matching `''\n",
      "sh: -c: line 1: syntax error: unexpected end of file\n",
      " 11%|█         | 1/9 [00:07<00:57,  7.15s/it]ffmpeg version 6.1.1 Copyright (c) 2000-2023 the FFmpeg developers\n",
      "  built with Apple clang version 15.0.0 (clang-1500.3.9.4)\n",
      "  configuration: --prefix=/opt/homebrew/Cellar/ffmpeg/6.1.1_6 --enable-shared --enable-pthreads --enable-version3 --cc=clang --host-cflags= --host-ldflags='-Wl,-ld_classic' --enable-ffplay --enable-gnutls --enable-gpl --enable-libaom --enable-libaribb24 --enable-libbluray --enable-libdav1d --enable-libharfbuzz --enable-libjxl --enable-libmp3lame --enable-libopus --enable-librav1e --enable-librist --enable-librubberband --enable-libsnappy --enable-libsrt --enable-libssh --enable-libsvtav1 --enable-libtesseract --enable-libtheora --enable-libvidstab --enable-libvmaf --enable-libvorbis --enable-libvpx --enable-libwebp --enable-libx264 --enable-libx265 --enable-libxml2 --enable-libxvid --enable-lzma --enable-libfontconfig --enable-libfreetype --enable-frei0r --enable-libass --enable-libopencore-amrnb --enable-libopencore-amrwb --enable-libopenjpeg --enable-libopenvino --enable-libspeex --enable-libsoxr --enable-libzmq --enable-libzimg --disable-libjack --disable-indev=jack --enable-videotoolbox --enable-audiotoolbox --enable-neon\n",
      "  libavutil      58. 29.100 / 58. 29.100\n",
      "  libavcodec     60. 31.102 / 60. 31.102\n",
      "  libavformat    60. 16.100 / 60. 16.100\n",
      "  libavdevice    60.  3.100 / 60.  3.100\n",
      "  libavfilter     9. 12.100 /  9. 12.100\n",
      "  libswscale      7.  5.100 /  7.  5.100\n",
      "  libswresample   4. 12.100 /  4. 12.100\n",
      "  libpostproc    57.  3.100 / 57.  3.100\n",
      "[aist#0:0/pcm_s16le @ 0x13ee3a6a0] Guessed Channel Layout: stereo\n",
      "Input #0, wav, from '/Users/deniz/Music/Soulseek Songs/AKA - All You Ever Told Were Lies (12'' Version).wav':\n",
      "  Metadata:\n",
      "    date            : 1994\n",
      "    comment         : 5A\n",
      "    album_artist    : A.K.A.\n",
      "    composer        : Mithat Konar\n",
      "    album           : All You Ever Told Were Lies (12\" Vinyl)\n",
      "    disc            : 1/1\n",
      "    genre           : Synthpop\n",
      "    publisher       : Wide Angle\n",
      "    track           : 1/3\n",
      "    artist          : AKA\n",
      "    title           : All You Ever Told Were Lies (12'' Version)\n",
      "  Duration: 00:06:19.40, bitrate: 1417 kb/s\n",
      "  Stream #0:0: Audio: pcm_s16le ([1][0][0][0] / 0x0001), 44100 Hz, 2 channels, s16, 1411 kb/s\n",
      "  Stream #0:1: Video: mjpeg (Progressive), yuvj420p(pc, bt470bg/unknown/unknown), 600x600 [SAR 300:300 DAR 1:1], 90k tbr, 90k tbn (attached pic)\n",
      "    Metadata:\n",
      "      comment         : Cover (front)\n",
      "Stream mapping:\n",
      "  Stream #0:1 -> #0:0 (mjpeg (native) -> png (native))\n",
      "  Stream #0:0 -> #0:1 (pcm_s16le (native) -> mp3 (libmp3lame))\n",
      "Press [q] to stop, [?] for help\n",
      "[swscaler @ 0x130250000] deprecated pixel format used, make sure you did set range correctly\n",
      "[swscaler @ 0x130250000] [swscaler @ 0x140050000] No accelerated colorspace conversion found from yuv420p to rgb24.\n",
      "[swscaler @ 0x130250000] [swscaler @ 0x1400b8000] No accelerated colorspace conversion found from yuv420p to rgb24.\n",
      "[swscaler @ 0x130250000] [swscaler @ 0x1400c8000] No accelerated colorspace conversion found from yuv420p to rgb24.\n",
      "[swscaler @ 0x130250000] [swscaler @ 0x1400e0000] No accelerated colorspace conversion found from yuv420p to rgb24.\n",
      "[swscaler @ 0x130250000] [swscaler @ 0x1400f0000] No accelerated colorspace conversion found from yuv420p to rgb24.\n",
      "[swscaler @ 0x130250000] [swscaler @ 0x140100000] No accelerated colorspace conversion found from yuv420p to rgb24.\n",
      "[swscaler @ 0x130250000] [swscaler @ 0x140110000] No accelerated colorspace conversion found from yuv420p to rgb24.\n",
      "[swscaler @ 0x130250000] [swscaler @ 0x140120000] No accelerated colorspace conversion found from yuv420p to rgb24.\n",
      "[swscaler @ 0x130250000] [swscaler @ 0x140130000] No accelerated colorspace conversion found from yuv420p to rgb24.\n",
      "[swscaler @ 0x130250000] [swscaler @ 0x140140000] No accelerated colorspace conversion found from yuv420p to rgb24.\n",
      "[swscaler @ 0x130250000] [swscaler @ 0x140150000] No accelerated colorspace conversion found from yuv420p to rgb24.\n",
      "[swscaler @ 0x120008000] deprecated pixel format used, make sure you did set range correctly\n",
      "[swscaler @ 0x120008000] [swscaler @ 0x140150000] No accelerated colorspace conversion found from yuv420p to rgb24.\n",
      "[swscaler @ 0x120008000] [swscaler @ 0x140050000] No accelerated colorspace conversion found from yuv420p to rgb24.\n",
      "[swscaler @ 0x120008000] [swscaler @ 0x140060000] No accelerated colorspace conversion found from yuv420p to rgb24.\n",
      "[swscaler @ 0x120008000] [swscaler @ 0x140070000] No accelerated colorspace conversion found from yuv420p to rgb24.\n",
      "[swscaler @ 0x120008000] [swscaler @ 0x140080000] No accelerated colorspace conversion found from yuv420p to rgb24.\n",
      "[swscaler @ 0x120008000] [swscaler @ 0x140090000] No accelerated colorspace conversion found from yuv420p to rgb24.\n",
      "[swscaler @ 0x120008000] [swscaler @ 0x1400a0000] No accelerated colorspace conversion found from yuv420p to rgb24.\n",
      "[swscaler @ 0x120008000] [swscaler @ 0x1400b0000] No accelerated colorspace conversion found from yuv420p to rgb24.\n",
      "[swscaler @ 0x120008000] [swscaler @ 0x1400c0000] No accelerated colorspace conversion found from yuv420p to rgb24.\n",
      "[swscaler @ 0x120008000] [swscaler @ 0x1400d0000] No accelerated colorspace conversion found from yuv420p to rgb24.\n",
      "[swscaler @ 0x120008000] [swscaler @ 0x1400e0000] No accelerated colorspace conversion found from yuv420p to rgb24.\n",
      "[swscaler @ 0x1400e0000] deprecated pixel format used, make sure you did set range correctly\n",
      "[swscaler @ 0x1400e0000] [swscaler @ 0x130250000] No accelerated colorspace conversion found from yuv420p to rgb24.\n",
      "[swscaler @ 0x1400e0000] [swscaler @ 0x130260000] No accelerated colorspace conversion found from yuv420p to rgb24.\n",
      "[swscaler @ 0x1400e0000] [swscaler @ 0x130270000] No accelerated colorspace conversion found from yuv420p to rgb24.\n",
      "[swscaler @ 0x1400e0000] [swscaler @ 0x130280000] No accelerated colorspace conversion found from yuv420p to rgb24.\n",
      "[swscaler @ 0x1400e0000] [swscaler @ 0x130290000] No accelerated colorspace conversion found from yuv420p to rgb24.\n",
      "[swscaler @ 0x1400e0000] [swscaler @ 0x1302a0000] No accelerated colorspace conversion found from yuv420p to rgb24.\n",
      "[swscaler @ 0x1400e0000] [swscaler @ 0x1302b0000] No accelerated colorspace conversion found from yuv420p to rgb24.\n",
      "[swscaler @ 0x1400e0000] [swscaler @ 0x1302c0000] No accelerated colorspace conversion found from yuv420p to rgb24.\n",
      "[swscaler @ 0x1400e0000] [swscaler @ 0x1302d0000] No accelerated colorspace conversion found from yuv420p to rgb24.\n",
      "[swscaler @ 0x1400e0000] [swscaler @ 0x1302e0000] No accelerated colorspace conversion found from yuv420p to rgb24.\n",
      "[swscaler @ 0x1400e0000] [swscaler @ 0x1302f0000] No accelerated colorspace conversion found from yuv420p to rgb24.\n",
      "[swscaler @ 0x1302f0000] deprecated pixel format used, make sure you did set range correctly\n",
      "[swscaler @ 0x1302f0000] [swscaler @ 0x1400e0000] No accelerated colorspace conversion found from yuv420p to rgb24.\n",
      "[swscaler @ 0x1302f0000] [swscaler @ 0x1400f0000] No accelerated colorspace conversion found from yuv420p to rgb24.\n",
      "[swscaler @ 0x1302f0000] [swscaler @ 0x140100000] No accelerated colorspace conversion found from yuv420p to rgb24.\n",
      "[swscaler @ 0x1302f0000] [swscaler @ 0x140110000] No accelerated colorspace conversion found from yuv420p to rgb24.\n",
      "[swscaler @ 0x1302f0000] [swscaler @ 0x140120000] No accelerated colorspace conversion found from yuv420p to rgb24.\n",
      "[swscaler @ 0x1302f0000] [swscaler @ 0x140130000] No accelerated colorspace conversion found from yuv420p to rgb24.\n",
      "[swscaler @ 0x1302f0000] [swscaler @ 0x140140000] No accelerated colorspace conversion found from yuv420p to rgb24.\n",
      "[swscaler @ 0x1302f0000] [swscaler @ 0x110008000] No accelerated colorspace conversion found from yuv420p to rgb24.\n",
      "[swscaler @ 0x1302f0000] [swscaler @ 0x110018000] No accelerated colorspace conversion found from yuv420p to rgb24.\n",
      "[swscaler @ 0x1302f0000] [swscaler @ 0x110028000] No accelerated colorspace conversion found from yuv420p to rgb24.\n",
      "[swscaler @ 0x1302f0000] [swscaler @ 0x110038000] No accelerated colorspace conversion found from yuv420p to rgb24.\n",
      "Output #0, mp3, to '/Users/deniz/Music/Soulseek Songs/AKA - All You Ever Told Were Lies (12'' Version).mp3':\n",
      "  Metadata:\n",
      "    TDRC            : 1994\n",
      "    comment         : 5A\n",
      "    TPE2            : A.K.A.\n",
      "    TCOM            : Mithat Konar\n",
      "    TALB            : All You Ever Told Were Lies (12\" Vinyl)\n",
      "    TPOS            : 1/1\n",
      "    TCON            : Synthpop\n",
      "    TPUB            : Wide Angle\n",
      "    TRCK            : 1/3\n",
      "    TPE1            : AKA\n",
      "    TIT2            : All You Ever Told Were Lies (12'' Version)\n",
      "    TSSE            : Lavf60.16.100\n",
      "  Stream #0:0: Video: png, rgb24(pc, gbr/unknown/unknown, progressive), 600x600 [SAR 1:1 DAR 1:1], q=2-31, 200 kb/s, 90k fps, 90k tbn (attached pic)\n",
      "    Metadata:\n",
      "      comment         : Cover (front)\n",
      "      encoder         : Lavc60.31.102 png\n",
      "  Stream #0:1: Audio: mp3, 44100 Hz, stereo, s16p, 320 kb/s\n",
      "    Metadata:\n",
      "      encoder         : Lavc60.31.102 libmp3lame\n",
      "frame=    0 fps=0.0 q=0.0 size=       0kB time=N/A bitrate=N/A speed=N/A    \r"
     ]
    },
    {
     "name": "stdout",
     "output_type": "stream",
     "text": [
      "/Users/deniz/Music/Soulseek Songs/AKA - All You Ever Told Were Lies (12'' Version).wav\n"
     ]
    },
    {
     "name": "stderr",
     "output_type": "stream",
     "text": [
      "[out#0/mp3 @ 0x13ee3bb50] video:658kB audio:14821kB subtitle:0kB other streams:0kB global headers:0kB muxing overhead: 0.008731%\n",
      "frame=    1 fps=0.2 q=-0.0 Lsize=   15481kB time=00:06:19.37 bitrate= 334.3kbits/s speed=84.9x    \n",
      " 22%|██▏       | 2/9 [00:11<00:39,  5.61s/it]ffmpeg version 6.1.1 Copyright (c) 2000-2023 the FFmpeg developers\n",
      "  built with Apple clang version 15.0.0 (clang-1500.3.9.4)\n",
      "  configuration: --prefix=/opt/homebrew/Cellar/ffmpeg/6.1.1_6 --enable-shared --enable-pthreads --enable-version3 --cc=clang --host-cflags= --host-ldflags='-Wl,-ld_classic' --enable-ffplay --enable-gnutls --enable-gpl --enable-libaom --enable-libaribb24 --enable-libbluray --enable-libdav1d --enable-libharfbuzz --enable-libjxl --enable-libmp3lame --enable-libopus --enable-librav1e --enable-librist --enable-librubberband --enable-libsnappy --enable-libsrt --enable-libssh --enable-libsvtav1 --enable-libtesseract --enable-libtheora --enable-libvidstab --enable-libvmaf --enable-libvorbis --enable-libvpx --enable-libwebp --enable-libx264 --enable-libx265 --enable-libxml2 --enable-libxvid --enable-lzma --enable-libfontconfig --enable-libfreetype --enable-frei0r --enable-libass --enable-libopencore-amrnb --enable-libopencore-amrwb --enable-libopenjpeg --enable-libopenvino --enable-libspeex --enable-libsoxr --enable-libzmq --enable-libzimg --disable-libjack --disable-indev=jack --enable-videotoolbox --enable-audiotoolbox --enable-neon\n",
      "  libavutil      58. 29.100 / 58. 29.100\n",
      "  libavcodec     60. 31.102 / 60. 31.102\n",
      "  libavformat    60. 16.100 / 60. 16.100\n",
      "  libavdevice    60.  3.100 / 60.  3.100\n",
      "  libavfilter     9. 12.100 /  9. 12.100\n",
      "  libswscale      7.  5.100 /  7.  5.100\n",
      "  libswresample   4. 12.100 /  4. 12.100\n",
      "  libpostproc    57.  3.100 / 57.  3.100\n",
      "[aist#0:0/pcm_s16be @ 0x123806650] Guessed Channel Layout: stereo\n",
      "Input #0, aiff, from '/Users/deniz/Music/Soulseek Songs/Lex Wolf - Erotika - 03 Keep Me Cumin' (Blue Moon Edit).aiff':\n",
      "  Metadata:\n",
      "    title           : Keep Me Cumin' (Blue Moon Edit)\n",
      "    artist          : Lex Wolf\n",
      "    track           : 3\n",
      "    album           : Erotika\n",
      "    TKEY            : 1A\n",
      "    album_artist    : EOE Show\n",
      "    comment         : Visit https://earsonearth.bandcamp.com\n",
      "    date            : 2023\n",
      "  Duration: 00:07:12.50, start: 0.000000, bitrate: 1412 kb/s\n",
      "  Stream #0:0: Audio: pcm_s16be, 44100 Hz, 2 channels, s16, 1411 kb/s\n",
      "  Stream #0:1: Video: mjpeg (Baseline), yuvj444p(pc, bt470bg/unknown/unknown), 700x700 [SAR 72:72 DAR 1:1], 90k tbr, 90k tbn (attached pic)\n",
      "    Metadata:\n",
      "      title           : cover\n",
      "      comment         : Cover (front)\n",
      "Stream mapping:\n",
      "  Stream #0:1 -> #0:0 (mjpeg (native) -> png (native))\n",
      "  Stream #0:0 -> #0:1 (pcm_s16be (native) -> mp3 (libmp3lame))\n",
      "Press [q] to stop, [?] for help\n",
      "[swscaler @ 0x118058000] deprecated pixel format used, make sure you did set range correctly\n",
      "[swscaler @ 0x1301a8000] deprecated pixel format used, make sure you did set range correctly\n",
      "[swscaler @ 0x138008000] deprecated pixel format used, make sure you did set range correctly\n",
      "    Last message repeated 1 times\n",
      "Output #0, mp3, to '/Users/deniz/Music/Soulseek Songs/Lex Wolf - Erotika - 03 Keep Me Cumin' (Blue Moon Edit).mp3':\n",
      "  Metadata:\n",
      "    TIT2            : Keep Me Cumin' (Blue Moon Edit)\n",
      "    TPE1            : Lex Wolf\n",
      "    TRCK            : 3\n",
      "    TALB            : Erotika\n",
      "    TKEY            : 1A\n",
      "    TPE2            : EOE Show\n",
      "    comment         : Visit https://earsonearth.bandcamp.com\n",
      "    TDRC            : 2023\n",
      "    TSSE            : Lavf60.16.100\n",
      "  Stream #0:0: Video: png, rgb24(pc, gbr/unknown/unknown, progressive), 700x700 [SAR 1:1 DAR 1:1], q=2-31, 200 kb/s, 90k fps, 90k tbn (attached pic)\n",
      "    Metadata:\n",
      "      title           : cover\n",
      "      comment         : Cover (front)\n",
      "      encoder         : Lavc60.31.102 png\n",
      "  Stream #0:1: Audio: mp3, 44100 Hz, stereo, s16p, 320 kb/s\n",
      "    Metadata:\n",
      "      encoder         : Lavc60.31.102 libmp3lame\n",
      "frame=    0 fps=0.0 q=0.0 size=       0kB time=N/A bitrate=N/A speed=N/A    \r"
     ]
    },
    {
     "name": "stdout",
     "output_type": "stream",
     "text": [
      "/Users/deniz/Music/Soulseek Songs/Lex Wolf - Erotika - 03 Keep Me Cumin' (Blue Moon Edit).aiff\n"
     ]
    },
    {
     "name": "stderr",
     "output_type": "stream",
     "text": [
      "[out#0/mp3 @ 0x123807490] video:626kB audio:16896kB subtitle:0kB other streams:0kB global headers:0kB muxing overhead: 0.007357%\n",
      "frame=    1 fps=0.2 q=-0.0 Lsize=   17523kB time=00:07:12.48 bitrate= 331.9kbits/s speed=83.1x    \n",
      "sh: -c: line 0: syntax error near unexpected token `('\n",
      "sh: -c: line 0: `rm -rf '/Users/deniz/Music/Soulseek Songs/Lex Wolf - Erotika - 03 Keep Me Cumin' (Blue Moon Edit).aiff''\n",
      " 33%|███▎      | 3/9 [00:16<00:32,  5.45s/it]"
     ]
    },
    {
     "name": "stdout",
     "output_type": "stream",
     "text": [
      "/Users/deniz/Music/Soulseek Songs/A.K.A. - 03 - Cruel Lovin' (Sans Vox Mix).flac\n"
     ]
    },
    {
     "name": "stderr",
     "output_type": "stream",
     "text": [
      "ffmpeg version 6.1.1 Copyright (c) 2000-2023 the FFmpeg developers\n",
      "  built with Apple clang version 15.0.0 (clang-1500.3.9.4)\n",
      "  configuration: --prefix=/opt/homebrew/Cellar/ffmpeg/6.1.1_6 --enable-shared --enable-pthreads --enable-version3 --cc=clang --host-cflags= --host-ldflags='-Wl,-ld_classic' --enable-ffplay --enable-gnutls --enable-gpl --enable-libaom --enable-libaribb24 --enable-libbluray --enable-libdav1d --enable-libharfbuzz --enable-libjxl --enable-libmp3lame --enable-libopus --enable-librav1e --enable-librist --enable-librubberband --enable-libsnappy --enable-libsrt --enable-libssh --enable-libsvtav1 --enable-libtesseract --enable-libtheora --enable-libvidstab --enable-libvmaf --enable-libvorbis --enable-libvpx --enable-libwebp --enable-libx264 --enable-libx265 --enable-libxml2 --enable-libxvid --enable-lzma --enable-libfontconfig --enable-libfreetype --enable-frei0r --enable-libass --enable-libopencore-amrnb --enable-libopencore-amrwb --enable-libopenjpeg --enable-libopenvino --enable-libspeex --enable-libsoxr --enable-libzmq --enable-libzimg --disable-libjack --disable-indev=jack --enable-videotoolbox --enable-audiotoolbox --enable-neon\n",
      "  libavutil      58. 29.100 / 58. 29.100\n",
      "  libavcodec     60. 31.102 / 60. 31.102\n",
      "  libavformat    60. 16.100 / 60. 16.100\n",
      "  libavdevice    60.  3.100 / 60.  3.100\n",
      "  libavfilter     9. 12.100 /  9. 12.100\n",
      "  libswscale      7.  5.100 /  7.  5.100\n",
      "  libswresample   4. 12.100 /  4. 12.100\n",
      "  libpostproc    57.  3.100 / 57.  3.100\n",
      "Input #0, flac, from '/Users/deniz/Music/Soulseek Songs/A.K.A. - 03 - Cruel Lovin' (Sans Vox Mix).flac':\n",
      "  Metadata:\n",
      "    AccurateRipResult: AccurateRip: Not in database   Secure: Yes   [3BD927BD]\n",
      "    AccurateRipDiscID: 006-00089b86-002d7427-3907ec06-3\n",
      "    Title           : Cruel Lovin' (Sans Vox Mix)\n",
      "    TOTALTRACKS     : 6\n",
      "    TOTALDISCS      : 1\n",
      "    ARTIST          : A.K.A.\n",
      "    ALBUM           : Cruel Lovin'\n",
      "    GENRE           : Freestyle\n",
      "    album_artist    : A.K.A.\n",
      "    DATE            : 1994\n",
      "    track           : 3\n",
      "  Duration: 00:06:34.53, start: 0.000000, bitrate: 944 kb/s\n",
      "  Stream #0:0: Audio: flac, 44100 Hz, stereo, s16\n",
      "  Stream #0:1: Video: mjpeg (Baseline), yuvj420p(pc, bt470bg/unknown/unknown), 701x692 [SAR 96:96 DAR 701:692], 90k tbr, 90k tbn (attached pic)\n",
      "    Metadata:\n",
      "      comment         : Cover (front)\n",
      "Stream mapping:\n",
      "  Stream #0:1 -> #0:0 (mjpeg (native) -> png (native))\n",
      "  Stream #0:0 -> #0:1 (flac (native) -> mp3 (libmp3lame))\n",
      "Press [q] to stop, [?] for help\n",
      "[swscaler @ 0x130258000] deprecated pixel format used, make sure you did set range correctly\n",
      "[swscaler @ 0x130258000] [swscaler @ 0x130268000] No accelerated colorspace conversion found from yuv420p to rgb24.\n",
      "[swscaler @ 0x130258000] [swscaler @ 0x130278000] No accelerated colorspace conversion found from yuv420p to rgb24.\n",
      "[swscaler @ 0x130258000] [swscaler @ 0x130288000] No accelerated colorspace conversion found from yuv420p to rgb24.\n",
      "[swscaler @ 0x130258000] [swscaler @ 0x130298000] No accelerated colorspace conversion found from yuv420p to rgb24.\n",
      "[swscaler @ 0x130258000] [swscaler @ 0x1302a8000] No accelerated colorspace conversion found from yuv420p to rgb24.\n",
      "[swscaler @ 0x130258000] [swscaler @ 0x1302b8000] No accelerated colorspace conversion found from yuv420p to rgb24.\n",
      "[swscaler @ 0x130258000] [swscaler @ 0x1302c8000] No accelerated colorspace conversion found from yuv420p to rgb24.\n",
      "[swscaler @ 0x130258000] [swscaler @ 0x1302d8000] No accelerated colorspace conversion found from yuv420p to rgb24.\n",
      "[swscaler @ 0x130258000] [swscaler @ 0x1302e8000] No accelerated colorspace conversion found from yuv420p to rgb24.\n",
      "[swscaler @ 0x130258000] [swscaler @ 0x1302f8000] No accelerated colorspace conversion found from yuv420p to rgb24.\n",
      "[swscaler @ 0x130258000] [swscaler @ 0x130308000] No accelerated colorspace conversion found from yuv420p to rgb24.\n",
      "[swscaler @ 0x120008000] deprecated pixel format used, make sure you did set range correctly\n",
      "[swscaler @ 0x120008000] [swscaler @ 0x120018000] No accelerated colorspace conversion found from yuv420p to rgb24.\n",
      "[swscaler @ 0x120008000] [swscaler @ 0x120028000] No accelerated colorspace conversion found from yuv420p to rgb24.\n",
      "[swscaler @ 0x120008000] [swscaler @ 0x120038000] No accelerated colorspace conversion found from yuv420p to rgb24.\n",
      "[swscaler @ 0x120008000] [swscaler @ 0x120048000] No accelerated colorspace conversion found from yuv420p to rgb24.\n",
      "[swscaler @ 0x120008000] [swscaler @ 0x120058000] No accelerated colorspace conversion found from yuv420p to rgb24.\n",
      "[swscaler @ 0x120008000] [swscaler @ 0x120068000] No accelerated colorspace conversion found from yuv420p to rgb24.\n",
      "[swscaler @ 0x120008000] [swscaler @ 0x120078000] No accelerated colorspace conversion found from yuv420p to rgb24.\n",
      "[swscaler @ 0x120008000] [swscaler @ 0x120088000] No accelerated colorspace conversion found from yuv420p to rgb24.\n",
      "[swscaler @ 0x120008000] [swscaler @ 0x120098000] No accelerated colorspace conversion found from yuv420p to rgb24.\n",
      "[swscaler @ 0x120008000] [swscaler @ 0x1200a8000] No accelerated colorspace conversion found from yuv420p to rgb24.\n",
      "[swscaler @ 0x120008000] [swscaler @ 0x1200b8000] No accelerated colorspace conversion found from yuv420p to rgb24.\n",
      "[swscaler @ 0x110008000] deprecated pixel format used, make sure you did set range correctly\n",
      "[swscaler @ 0x110008000] [swscaler @ 0x138008000] No accelerated colorspace conversion found from yuv420p to rgb24.\n",
      "[swscaler @ 0x110008000] [swscaler @ 0x138018000] No accelerated colorspace conversion found from yuv420p to rgb24.\n",
      "[swscaler @ 0x110008000] [swscaler @ 0x138028000] No accelerated colorspace conversion found from yuv420p to rgb24.\n",
      "[swscaler @ 0x110008000] [swscaler @ 0x138038000] No accelerated colorspace conversion found from yuv420p to rgb24.\n",
      "[swscaler @ 0x110008000] [swscaler @ 0x138048000] No accelerated colorspace conversion found from yuv420p to rgb24.\n",
      "[swscaler @ 0x110008000] [swscaler @ 0x138058000] No accelerated colorspace conversion found from yuv420p to rgb24.\n",
      "[swscaler @ 0x110008000] [swscaler @ 0x138068000] No accelerated colorspace conversion found from yuv420p to rgb24.\n",
      "[swscaler @ 0x110008000] [swscaler @ 0x138078000] No accelerated colorspace conversion found from yuv420p to rgb24.\n",
      "[swscaler @ 0x110008000] [swscaler @ 0x138088000] No accelerated colorspace conversion found from yuv420p to rgb24.\n",
      "[swscaler @ 0x110008000] [swscaler @ 0x138098000] No accelerated colorspace conversion found from yuv420p to rgb24.\n",
      "[swscaler @ 0x110008000] [swscaler @ 0x1380a8000] No accelerated colorspace conversion found from yuv420p to rgb24.\n",
      "[swscaler @ 0x140008000] deprecated pixel format used, make sure you did set range correctly\n",
      "[swscaler @ 0x140008000] [swscaler @ 0x130258000] No accelerated colorspace conversion found from yuv420p to rgb24.\n",
      "[swscaler @ 0x140008000] [swscaler @ 0x130268000] No accelerated colorspace conversion found from yuv420p to rgb24.\n",
      "[swscaler @ 0x140008000] [swscaler @ 0x130278000] No accelerated colorspace conversion found from yuv420p to rgb24.\n",
      "[swscaler @ 0x140008000] [swscaler @ 0x130288000] No accelerated colorspace conversion found from yuv420p to rgb24.\n",
      "[swscaler @ 0x140008000] [swscaler @ 0x130298000] No accelerated colorspace conversion found from yuv420p to rgb24.\n",
      "[swscaler @ 0x140008000] [swscaler @ 0x1302a8000] No accelerated colorspace conversion found from yuv420p to rgb24.\n",
      "[swscaler @ 0x140008000] [swscaler @ 0x1302b8000] No accelerated colorspace conversion found from yuv420p to rgb24.\n",
      "[swscaler @ 0x140008000] [swscaler @ 0x1302c8000] No accelerated colorspace conversion found from yuv420p to rgb24.\n",
      "[swscaler @ 0x140008000] [swscaler @ 0x1302d8000] No accelerated colorspace conversion found from yuv420p to rgb24.\n",
      "[swscaler @ 0x140008000] [swscaler @ 0x1302e8000] No accelerated colorspace conversion found from yuv420p to rgb24.\n",
      "[swscaler @ 0x140008000] [swscaler @ 0x1302f8000] No accelerated colorspace conversion found from yuv420p to rgb24.\n",
      "Output #0, mp3, to '/Users/deniz/Music/Soulseek Songs/A.K.A. - 03 - Cruel Lovin' (Sans Vox Mix).mp3':\n",
      "  Metadata:\n",
      "    AccurateRipResult: AccurateRip: Not in database   Secure: Yes   [3BD927BD]\n",
      "    AccurateRipDiscID: 006-00089b86-002d7427-3907ec06-3\n",
      "    TIT2            : Cruel Lovin' (Sans Vox Mix)\n",
      "    TOTALTRACKS     : 6\n",
      "    TOTALDISCS      : 1\n",
      "    TPE1            : A.K.A.\n",
      "    TALB            : Cruel Lovin'\n",
      "    TCON            : Freestyle\n",
      "    TPE2            : A.K.A.\n",
      "    TDRC            : 1994\n",
      "    TRCK            : 3\n",
      "    TSSE            : Lavf60.16.100\n",
      "  Stream #0:0: Video: png, rgb24(pc, gbr/unknown/unknown, progressive), 701x692 [SAR 1:1 DAR 701:692], q=2-31, 200 kb/s, 90k fps, 90k tbn (attached pic)\n",
      "    Metadata:\n",
      "      comment         : Cover (front)\n",
      "      encoder         : Lavc60.31.102 png\n",
      "  Stream #0:1: Audio: mp3, 44100 Hz, stereo, s16p, 320 kb/s\n",
      "    Metadata:\n",
      "      encoder         : Lavc60.31.102 libmp3lame\n",
      "[out#0/mp3 @ 0x12e814aa0] video:624kB audio:15413kB subtitle:0kB other streams:0kB global headers:0kB muxing overhead: 0.008872%\n",
      "frame=    1 fps=0.2 q=-0.0 Lsize=   16038kB time=00:06:34.52 bitrate= 333.0kbits/s speed=85.6x    \n",
      "sh: -c: line 0: syntax error near unexpected token `('\n",
      "sh: -c: line 0: `rm -rf '/Users/deniz/Music/Soulseek Songs/A.K.A. - 03 - Cruel Lovin' (Sans Vox Mix).flac''\n",
      " 44%|████▍     | 4/9 [00:21<00:25,  5.13s/it]ffmpeg version 6.1.1 Copyright (c) 2000-2023 the FFmpeg developers\n",
      "  built with Apple clang version 15.0.0 (clang-1500.3.9.4)\n",
      "  configuration: --prefix=/opt/homebrew/Cellar/ffmpeg/6.1.1_6 --enable-shared --enable-pthreads --enable-version3 --cc=clang --host-cflags= --host-ldflags='-Wl,-ld_classic' --enable-ffplay --enable-gnutls --enable-gpl --enable-libaom --enable-libaribb24 --enable-libbluray --enable-libdav1d --enable-libharfbuzz --enable-libjxl --enable-libmp3lame --enable-libopus --enable-librav1e --enable-librist --enable-librubberband --enable-libsnappy --enable-libsrt --enable-libssh --enable-libsvtav1 --enable-libtesseract --enable-libtheora --enable-libvidstab --enable-libvmaf --enable-libvorbis --enable-libvpx --enable-libwebp --enable-libx264 --enable-libx265 --enable-libxml2 --enable-libxvid --enable-lzma --enable-libfontconfig --enable-libfreetype --enable-frei0r --enable-libass --enable-libopencore-amrnb --enable-libopencore-amrwb --enable-libopenjpeg --enable-libopenvino --enable-libspeex --enable-libsoxr --enable-libzmq --enable-libzimg --disable-libjack --disable-indev=jack --enable-videotoolbox --enable-audiotoolbox --enable-neon\n",
      "  libavutil      58. 29.100 / 58. 29.100\n",
      "  libavcodec     60. 31.102 / 60. 31.102\n",
      "  libavformat    60. 16.100 / 60. 16.100\n",
      "  libavdevice    60.  3.100 / 60.  3.100\n",
      "  libavfilter     9. 12.100 /  9. 12.100\n",
      "  libswscale      7.  5.100 /  7.  5.100\n",
      "  libswresample   4. 12.100 /  4. 12.100\n",
      "  libpostproc    57.  3.100 / 57.  3.100\n",
      "[aist#0:0/pcm_s16le @ 0x155f13320] Guessed Channel Layout: stereo\n",
      "Input #0, wav, from '/Users/deniz/Music/Soulseek Songs/M.A.D Edits - House Teachin'.wav':\n",
      "  Duration: 00:05:56.85, bitrate: 1411 kb/s\n",
      "  Stream #0:0: Audio: pcm_s16le ([1][0][0][0] / 0x0001), 44100 Hz, 2 channels, s16, 1411 kb/s\n",
      "Stream mapping:\n",
      "  Stream #0:0 -> #0:0 (pcm_s16le (native) -> mp3 (libmp3lame))\n",
      "Press [q] to stop, [?] for help\n",
      "Output #0, mp3, to '/Users/deniz/Music/Soulseek Songs/M.A.D Edits - House Teachin'.mp3':\n",
      "  Metadata:\n",
      "    TSSE            : Lavf60.16.100\n",
      "  Stream #0:0: Audio: mp3, 44100 Hz, stereo, s16p, 320 kb/s\n",
      "    Metadata:\n",
      "      encoder         : Lavc60.31.102 libmp3lame\n",
      "size=       0kB time=N/A bitrate=N/A speed=N/A    \r"
     ]
    },
    {
     "name": "stdout",
     "output_type": "stream",
     "text": [
      "/Users/deniz/Music/Soulseek Songs/M.A.D Edits - House Teachin'.wav\n"
     ]
    },
    {
     "name": "stderr",
     "output_type": "stream",
     "text": [
      "[out#0/mp3 @ 0x155f15150] video:0kB audio:13941kB subtitle:0kB other streams:0kB global headers:0kB muxing overhead: 0.007629%\n",
      "size=   13942kB time=00:05:56.83 bitrate= 320.1kbits/s speed=87.1x    \n",
      "sh: -c: line 0: unexpected EOF while looking for matching `''\n",
      "sh: -c: line 1: syntax error: unexpected end of file\n",
      " 56%|█████▌    | 5/9 [00:25<00:19,  4.78s/it]ffmpeg version 6.1.1 Copyright (c) 2000-2023 the FFmpeg developers\n",
      "  built with Apple clang version 15.0.0 (clang-1500.3.9.4)\n",
      "  configuration: --prefix=/opt/homebrew/Cellar/ffmpeg/6.1.1_6 --enable-shared --enable-pthreads --enable-version3 --cc=clang --host-cflags= --host-ldflags='-Wl,-ld_classic' --enable-ffplay --enable-gnutls --enable-gpl --enable-libaom --enable-libaribb24 --enable-libbluray --enable-libdav1d --enable-libharfbuzz --enable-libjxl --enable-libmp3lame --enable-libopus --enable-librav1e --enable-librist --enable-librubberband --enable-libsnappy --enable-libsrt --enable-libssh --enable-libsvtav1 --enable-libtesseract --enable-libtheora --enable-libvidstab --enable-libvmaf --enable-libvorbis --enable-libvpx --enable-libwebp --enable-libx264 --enable-libx265 --enable-libxml2 --enable-libxvid --enable-lzma --enable-libfontconfig --enable-libfreetype --enable-frei0r --enable-libass --enable-libopencore-amrnb --enable-libopencore-amrwb --enable-libopenjpeg --enable-libopenvino --enable-libspeex --enable-libsoxr --enable-libzmq --enable-libzimg --disable-libjack --disable-indev=jack --enable-videotoolbox --enable-audiotoolbox --enable-neon\n",
      "  libavutil      58. 29.100 / 58. 29.100\n",
      "  libavcodec     60. 31.102 / 60. 31.102\n",
      "  libavformat    60. 16.100 / 60. 16.100\n",
      "  libavdevice    60.  3.100 / 60.  3.100\n",
      "  libavfilter     9. 12.100 /  9. 12.100\n",
      "  libswscale      7.  5.100 /  7.  5.100\n",
      "  libswresample   4. 12.100 /  4. 12.100\n",
      "  libpostproc    57.  3.100 / 57.  3.100\n",
      "Input #0, flac, from '/Users/deniz/Music/Soulseek Songs/03 - Two Right Wrongans - They'll Never Get It Right, Them Two.flac':\n",
      "  Metadata:\n",
      "    ENCODER         : X Lossless Decoder 20181019\n",
      "    TITLE           : They'll Never Get It Right, Them Two\n",
      "    ARTIST          : Two Right Wrongans\n",
      "    ALBUM           : The Not Quite Right EP\n",
      "    album_artist    : Two Right Wrongans\n",
      "    track           : 3\n",
      "    TRACKTOTAL      : 3\n",
      "    TOTALTRACKS     : 3\n",
      "    DATE            : 1997\n",
      "    iTunes_CDDB_1   : 1D0B4503+216545+3+150+68357+136274\n",
      "    Label           : Wrong\n",
      "  Duration: 00:08:11.66, start: 0.000000, bitrate: 2695 kb/s\n",
      "  Stream #0:0: Audio: flac, 96000 Hz, stereo, s32 (24 bit)\n",
      "Stream mapping:\n",
      "  Stream #0:0 -> #0:0 (flac (native) -> mp3 (libmp3lame))\n",
      "Press [q] to stop, [?] for help\n",
      "Output #0, mp3, to '/Users/deniz/Music/Soulseek Songs/03 - Two Right Wrongans - They'll Never Get It Right, Them Two.mp3':\n",
      "  Metadata:\n",
      "    Label           : Wrong\n",
      "    TIT2            : They'll Never Get It Right, Them Two\n",
      "    TPE1            : Two Right Wrongans\n",
      "    TALB            : The Not Quite Right EP\n",
      "    TPE2            : Two Right Wrongans\n",
      "    TRCK            : 3\n",
      "    TRACKTOTAL      : 3\n",
      "    TOTALTRACKS     : 3\n",
      "    TDRC            : 1997\n",
      "    iTunes_CDDB_1   : 1D0B4503+216545+3+150+68357+136274\n",
      "    TSSE            : Lavf60.16.100\n",
      "  Stream #0:0: Audio: mp3, 44100 Hz, stereo, s32p, 320 kb/s\n",
      "    Metadata:\n",
      "      encoder         : Lavc60.31.102 libmp3lame\n",
      "size=       0kB time=N/A bitrate=N/A speed=N/A    \r"
     ]
    },
    {
     "name": "stdout",
     "output_type": "stream",
     "text": [
      "/Users/deniz/Music/Soulseek Songs/03 - Two Right Wrongans - They'll Never Get It Right, Them Two.flac\n"
     ]
    },
    {
     "name": "stderr",
     "output_type": "stream",
     "text": [
      "[out#0/mp3 @ 0x12b804c60] video:0kB audio:19207kB subtitle:0kB other streams:0kB global headers:0kB muxing overhead: 0.007077%\n",
      "size=   19209kB time=00:08:11.65 bitrate= 320.1kbits/s speed=76.2x    \n",
      "sh: -c: line 0: unexpected EOF while looking for matching `''\n",
      "sh: -c: line 1: syntax error: unexpected end of file\n",
      " 67%|██████▋   | 6/9 [00:32<00:16,  5.37s/it]ffmpeg version 6.1.1 Copyright (c) 2000-2023 the FFmpeg developers\n",
      "  built with Apple clang version 15.0.0 (clang-1500.3.9.4)\n",
      "  configuration: --prefix=/opt/homebrew/Cellar/ffmpeg/6.1.1_6 --enable-shared --enable-pthreads --enable-version3 --cc=clang --host-cflags= --host-ldflags='-Wl,-ld_classic' --enable-ffplay --enable-gnutls --enable-gpl --enable-libaom --enable-libaribb24 --enable-libbluray --enable-libdav1d --enable-libharfbuzz --enable-libjxl --enable-libmp3lame --enable-libopus --enable-librav1e --enable-librist --enable-librubberband --enable-libsnappy --enable-libsrt --enable-libssh --enable-libsvtav1 --enable-libtesseract --enable-libtheora --enable-libvidstab --enable-libvmaf --enable-libvorbis --enable-libvpx --enable-libwebp --enable-libx264 --enable-libx265 --enable-libxml2 --enable-libxvid --enable-lzma --enable-libfontconfig --enable-libfreetype --enable-frei0r --enable-libass --enable-libopencore-amrnb --enable-libopencore-amrwb --enable-libopenjpeg --enable-libopenvino --enable-libspeex --enable-libsoxr --enable-libzmq --enable-libzimg --disable-libjack --disable-indev=jack --enable-videotoolbox --enable-audiotoolbox --enable-neon\n",
      "  libavutil      58. 29.100 / 58. 29.100\n",
      "  libavcodec     60. 31.102 / 60. 31.102\n",
      "  libavformat    60. 16.100 / 60. 16.100\n",
      "  libavdevice    60.  3.100 / 60.  3.100\n",
      "  libavfilter     9. 12.100 /  9. 12.100\n",
      "  libswscale      7.  5.100 /  7.  5.100\n",
      "  libswresample   4. 12.100 /  4. 12.100\n",
      "  libpostproc    57.  3.100 / 57.  3.100\n",
      "[aist#0:0/pcm_s16be @ 0x11ef06c50] Guessed Channel Layout: stereo\n",
      "Input #0, aiff, from '/Users/deniz/Music/Soulseek Songs/Munir Nadir - B1 It's Time To Kick Ass VINYL ONLY  [Outcast Planet].aiff':\n",
      "  Metadata:\n",
      "    album           : Roast Beat (Vinyl Only) OTP04\n",
      "    artist          : Munir Nadir\n",
      "    album_artist    : Munir Nadir\n",
      "    TOWN            : Outcast Planet\n",
      "    genre           : Tech House\n",
      "    publisher       : Outcast Planet\n",
      "    title           : Munir Nadir - B1 It's Time To Kick Ass VINYL ONLY \n",
      "    track           : B1\n",
      "    date            : 2023\n",
      "    TKEY            : Bm\n",
      "    TBPM            : 132\n",
      "  Duration: 00:05:23.66, start: 0.000000, bitrate: 1412 kb/s\n",
      "  Stream #0:0: Audio: pcm_s16be, 44100 Hz, 2 channels, s16, 1411 kb/s\n",
      "  Stream #0:1: Video: mjpeg (Baseline), yuvj444p(pc, bt470bg/unknown/unknown), 240x240 [SAR 96:96 DAR 1:1], 90k tbr, 90k tbn (attached pic)\n",
      "    Metadata:\n",
      "      comment         : Cover (front)\n",
      "Stream mapping:\n",
      "  Stream #0:1 -> #0:0 (mjpeg (native) -> png (native))\n",
      "  Stream #0:0 -> #0:1 (pcm_s16be (native) -> mp3 (libmp3lame))\n",
      "Press [q] to stop, [?] for help\n",
      "[swscaler @ 0x138018000] deprecated pixel format used, make sure you did set range correctly\n",
      "    Last message repeated 1 times\n",
      "[swscaler @ 0x140008000] deprecated pixel format used, make sure you did set range correctly\n",
      "[swscaler @ 0x148008000] deprecated pixel format used, make sure you did set range correctly\n",
      "Output #0, mp3, to '/Users/deniz/Music/Soulseek Songs/Munir Nadir - B1 It's Time To Kick Ass VINYL ONLY  [Outcast Planet].mp3':\n",
      "  Metadata:\n",
      "    TALB            : Roast Beat (Vinyl Only) OTP04\n",
      "    TPE1            : Munir Nadir\n",
      "    TPE2            : Munir Nadir\n",
      "    TOWN            : Outcast Planet\n",
      "    TCON            : Tech House\n",
      "    TPUB            : Outcast Planet\n",
      "    TIT2            : Munir Nadir - B1 It's Time To Kick Ass VINYL ONLY \n",
      "    TRCK            : B1\n",
      "    TDRC            : 2023\n",
      "    TKEY            : Bm\n",
      "    TBPM            : 132\n",
      "    TSSE            : Lavf60.16.100\n",
      "  Stream #0:0: Video: png, rgb24(pc, gbr/unknown/unknown, progressive), 240x240 [SAR 1:1 DAR 1:1], q=2-31, 200 kb/s, 90k fps, 90k tbn (attached pic)\n",
      "    Metadata:\n",
      "      comment         : Cover (front)\n",
      "      encoder         : Lavc60.31.102 png\n",
      "  Stream #0:1: Audio: mp3, 44100 Hz, stereo, s16p, 320 kb/s\n",
      "    Metadata:\n",
      "      encoder         : Lavc60.31.102 libmp3lame\n",
      "frame=    0 fps=0.0 q=0.0 size=       0kB time=N/A bitrate=N/A speed=N/A    \r"
     ]
    },
    {
     "name": "stdout",
     "output_type": "stream",
     "text": [
      "/Users/deniz/Music/Soulseek Songs/Munir Nadir - B1 It's Time To Kick Ass VINYL ONLY  [Outcast Planet].aiff\n"
     ]
    },
    {
     "name": "stderr",
     "output_type": "stream",
     "text": [
      "[out#0/mp3 @ 0x11ef079f0] video:130kB audio:12645kB subtitle:0kB other streams:0kB global headers:0kB muxing overhead: 0.010656%\n",
      "frame=    1 fps=0.3 q=-0.0 Lsize=   12776kB time=00:05:23.65 bitrate= 323.4kbits/s speed=  83x    \n",
      "sh: -c: line 0: unexpected EOF while looking for matching `''\n",
      "sh: -c: line 1: syntax error: unexpected end of file\n",
      " 78%|███████▊  | 7/9 [00:36<00:09,  4.91s/it]ffmpeg version 6.1.1 Copyright (c) 2000-2023 the FFmpeg developers\n",
      "  built with Apple clang version 15.0.0 (clang-1500.3.9.4)\n",
      "  configuration: --prefix=/opt/homebrew/Cellar/ffmpeg/6.1.1_6 --enable-shared --enable-pthreads --enable-version3 --cc=clang --host-cflags= --host-ldflags='-Wl,-ld_classic' --enable-ffplay --enable-gnutls --enable-gpl --enable-libaom --enable-libaribb24 --enable-libbluray --enable-libdav1d --enable-libharfbuzz --enable-libjxl --enable-libmp3lame --enable-libopus --enable-librav1e --enable-librist --enable-librubberband --enable-libsnappy --enable-libsrt --enable-libssh --enable-libsvtav1 --enable-libtesseract --enable-libtheora --enable-libvidstab --enable-libvmaf --enable-libvorbis --enable-libvpx --enable-libwebp --enable-libx264 --enable-libx265 --enable-libxml2 --enable-libxvid --enable-lzma --enable-libfontconfig --enable-libfreetype --enable-frei0r --enable-libass --enable-libopencore-amrnb --enable-libopencore-amrwb --enable-libopenjpeg --enable-libopenvino --enable-libspeex --enable-libsoxr --enable-libzmq --enable-libzimg --disable-libjack --disable-indev=jack --enable-videotoolbox --enable-audiotoolbox --enable-neon\n",
      "  libavutil      58. 29.100 / 58. 29.100\n",
      "  libavcodec     60. 31.102 / 60. 31.102\n",
      "  libavformat    60. 16.100 / 60. 16.100\n",
      "  libavdevice    60.  3.100 / 60.  3.100\n",
      "  libavfilter     9. 12.100 /  9. 12.100\n",
      "  libswscale      7.  5.100 /  7.  5.100\n",
      "  libswresample   4. 12.100 /  4. 12.100\n",
      "  libpostproc    57.  3.100 / 57.  3.100\n",
      "[aist#0:0/pcm_s16be @ 0x1257152e0] Guessed Channel Layout: stereo\n",
      "Input #0, aiff, from '/Users/deniz/Music/Soulseek Songs/Rakim Under - Rakim Redun Vol.1 - 03 B1. Allen's Hi-Fi (Rakim Under Edit).aiff':\n",
      "  Metadata:\n",
      "    title           : B1. Allen's Hi-Fi (Rakim Under Edit)\n",
      "    artist          : Rakim Under\n",
      "    track           : 3\n",
      "    album           : Rakim Redun Vol.1\n",
      "    TKEY            : 8A\n",
      "    album_artist    : Rakim Under\n",
      "    comment         : Visit https://rakimunder.bandcamp.com\n",
      "    date            : 2023\n",
      "  Duration: 00:01:30.00, start: 0.000000, bitrate: 1415 kb/s\n",
      "  Stream #0:0: Audio: pcm_s16be, 44100 Hz, 2 channels, s16, 1411 kb/s\n",
      "  Stream #0:1: Video: mjpeg (Baseline), yuvj444p(pc, bt470bg/unknown/unknown), 700x700 [SAR 72:72 DAR 1:1], 90k tbr, 90k tbn (attached pic)\n",
      "    Metadata:\n",
      "      title           : cover\n",
      "      comment         : Cover (front)\n",
      "Stream mapping:\n",
      "  Stream #0:1 -> #0:0 (mjpeg (native) -> png (native))\n",
      "  Stream #0:0 -> #0:1 (pcm_s16be (native) -> mp3 (libmp3lame))\n",
      "Press [q] to stop, [?] for help\n",
      "[swscaler @ 0x110018000] deprecated pixel format used, make sure you did set range correctly\n",
      "    Last message repeated 1 times\n",
      "[swscaler @ 0x1300a8000] deprecated pixel format used, make sure you did set range correctly\n",
      "[swscaler @ 0x1280f8000] deprecated pixel format used, make sure you did set range correctly\n",
      "Output #0, mp3, to '/Users/deniz/Music/Soulseek Songs/Rakim Under - Rakim Redun Vol.1 - 03 B1. Allen's Hi-Fi (Rakim Under Edit).mp3':\n",
      "  Metadata:\n",
      "    TIT2            : B1. Allen's Hi-Fi (Rakim Under Edit)\n",
      "    TPE1            : Rakim Under\n",
      "    TRCK            : 3\n",
      "    TALB            : Rakim Redun Vol.1\n",
      "    TKEY            : 8A\n",
      "    TPE2            : Rakim Under\n",
      "    comment         : Visit https://rakimunder.bandcamp.com\n",
      "    TDRC            : 2023\n",
      "    TSSE            : Lavf60.16.100\n",
      "  Stream #0:0: Video: png, rgb24(pc, gbr/unknown/unknown, progressive), 700x700 [SAR 1:1 DAR 1:1], q=2-31, 200 kb/s, 90k fps, 90k tbn (attached pic)\n",
      "    Metadata:\n",
      "      title           : cover\n",
      "      comment         : Cover (front)\n",
      "      encoder         : Lavc60.31.102 png\n",
      "  Stream #0:1: Audio: mp3, 44100 Hz, stereo, s16p, 320 kb/s\n",
      "    Metadata:\n",
      "      encoder         : Lavc60.31.102 libmp3lame\n",
      "frame=    0 fps=0.0 q=0.0 size=       0kB time=N/A bitrate=N/A speed=N/A    \r"
     ]
    },
    {
     "name": "stdout",
     "output_type": "stream",
     "text": [
      "/Users/deniz/Music/Soulseek Songs/Rakim Under - Rakim Redun Vol.1 - 03 B1. Allen's Hi-Fi (Rakim Under Edit).aiff\n"
     ]
    },
    {
     "name": "stderr",
     "output_type": "stream",
     "text": [
      "[out#0/mp3 @ 0x12570f690] video:160kB audio:3517kB subtitle:0kB other streams:0kB global headers:0kB muxing overhead: 0.035590%\n",
      "frame=    1 fps=0.9 q=-0.0 Lsize=    3678kB time=00:01:29.99 bitrate= 334.8kbits/s speed=81.6x    \n",
      "sh: -c: line 0: syntax error near unexpected token `('\n",
      "sh: -c: line 0: `rm -rf '/Users/deniz/Music/Soulseek Songs/Rakim Under - Rakim Redun Vol.1 - 03 B1. Allen's Hi-Fi (Rakim Under Edit).aiff''\n",
      " 89%|████████▉ | 8/9 [00:37<00:03,  3.71s/it]ffmpeg version 6.1.1 Copyright (c) 2000-2023 the FFmpeg developers\n",
      "  built with Apple clang version 15.0.0 (clang-1500.3.9.4)\n",
      "  configuration: --prefix=/opt/homebrew/Cellar/ffmpeg/6.1.1_6 --enable-shared --enable-pthreads --enable-version3 --cc=clang --host-cflags= --host-ldflags='-Wl,-ld_classic' --enable-ffplay --enable-gnutls --enable-gpl --enable-libaom --enable-libaribb24 --enable-libbluray --enable-libdav1d --enable-libharfbuzz --enable-libjxl --enable-libmp3lame --enable-libopus --enable-librav1e --enable-librist --enable-librubberband --enable-libsnappy --enable-libsrt --enable-libssh --enable-libsvtav1 --enable-libtesseract --enable-libtheora --enable-libvidstab --enable-libvmaf --enable-libvorbis --enable-libvpx --enable-libwebp --enable-libx264 --enable-libx265 --enable-libxml2 --enable-libxvid --enable-lzma --enable-libfontconfig --enable-libfreetype --enable-frei0r --enable-libass --enable-libopencore-amrnb --enable-libopencore-amrwb --enable-libopenjpeg --enable-libopenvino --enable-libspeex --enable-libsoxr --enable-libzmq --enable-libzimg --disable-libjack --disable-indev=jack --enable-videotoolbox --enable-audiotoolbox --enable-neon\n",
      "  libavutil      58. 29.100 / 58. 29.100\n",
      "  libavcodec     60. 31.102 / 60. 31.102\n",
      "  libavformat    60. 16.100 / 60. 16.100\n",
      "  libavdevice    60.  3.100 / 60.  3.100\n",
      "  libavfilter     9. 12.100 /  9. 12.100\n",
      "  libswscale      7.  5.100 /  7.  5.100\n",
      "  libswresample   4. 12.100 /  4. 12.100\n",
      "  libpostproc    57.  3.100 / 57.  3.100\n",
      "Input #0, flac, from '/Users/deniz/Music/Soulseek Songs/199. 2 Brothers On The 4th Floor - Can't Help Myself.flac':\n",
      "  Metadata:\n",
      "    album           : Maraton Top 1000 Euro-Dance 1990-2000 Vol. 01\n",
      "    album_artist    : VA\n",
      "    ARTIST          : 2 Brothers On The 4th Floor\n",
      "    comment         : Lossless\n",
      "    DATE            : 2015\n",
      "    ENCODER         : Easy CD-DA Extractor (http://www.poikosoft.com)\n",
      "    genre           : Euro-Dance\n",
      "    TITLE           : Can't Help Myself\n",
      "    TRACKTOTAL      : 200\n",
      "    track           : 199\n",
      "    replaygain_track_gain: -7.00 dB\n",
      "    replaygain_track_peak: 0.797884\n",
      "  Duration: 00:05:17.00, start: 0.000000, bitrate: 1003 kb/s\n",
      "  Stream #0:0: Audio: flac, 44100 Hz, stereo, s16\n",
      "    Side data:\n",
      "      replaygain: track gain - -7.000000, track peak - 0.000019, album gain - unknown, album peak - unknown, \n",
      "  Stream #0:1: Video: mjpeg (Baseline), yuvj420p(pc, bt470bg/unknown/unknown), 1431x1419 [SAR 600:600 DAR 477:473], 90k tbr, 90k tbn (attached pic)\n",
      "    Metadata:\n",
      "      comment         : Cover (front)\n",
      "Stream mapping:\n",
      "  Stream #0:1 -> #0:0 (mjpeg (native) -> png (native))\n",
      "  Stream #0:0 -> #0:1 (flac (native) -> mp3 (libmp3lame))\n",
      "Press [q] to stop, [?] for help\n",
      "[swscaler @ 0x120018000] deprecated pixel format used, make sure you did set range correctly\n",
      "[swscaler @ 0x1400b8000] deprecated pixel format used, make sure you did set range correctly\n",
      "[swscaler @ 0x150060000] deprecated pixel format used, make sure you did set range correctly\n",
      "[swscaler @ 0x1400b8000] deprecated pixel format used, make sure you did set range correctly\n",
      "Output #0, mp3, to '/Users/deniz/Music/Soulseek Songs/199. 2 Brothers On The 4th Floor - Can't Help Myse.mp3':\n",
      "  Metadata:\n",
      "    TALB            : Maraton Top 1000 Euro-Dance 1990-2000 Vol. 01\n",
      "    TPE2            : VA\n",
      "    TPE1            : 2 Brothers On The 4th Floor\n",
      "    comment         : Lossless\n",
      "    TDRC            : 2015\n",
      "    replaygain_track_peak: 0.797884\n",
      "    TCON            : Euro-Dance\n",
      "    TIT2            : Can't Help Myself\n",
      "    TRACKTOTAL      : 200\n",
      "    TRCK            : 199\n",
      "    replaygain_track_gain: -7.00 dB\n",
      "    TSSE            : Lavf60.16.100\n",
      "  Stream #0:0: Video: png, rgb24(pc, gbr/unknown/unknown, progressive), 1431x1419 [SAR 1:1 DAR 477:473], q=2-31, 200 kb/s, 90k fps, 90k tbn (attached pic)\n",
      "    Metadata:\n",
      "      comment         : Cover (front)\n",
      "      encoder         : Lavc60.31.102 png\n",
      "  Stream #0:1: Audio: mp3, 44100 Hz, stereo, s16p, 320 kb/s\n",
      "    Metadata:\n",
      "      encoder         : Lavc60.31.102 libmp3lame\n",
      "    Side data:\n",
      "      replaygain: track gain - -7.000000, track peak - 0.000019, album gain - unknown, album peak - unknown, \n",
      "frame=    0 fps=0.0 q=0.0 size=       0kB time=-00:00:00.02 bitrate=  -0.0kbits/s speed=N/A    \r"
     ]
    },
    {
     "name": "stdout",
     "output_type": "stream",
     "text": [
      "/Users/deniz/Music/Soulseek Songs/199. 2 Brothers On The 4th Floor - Can't Help Myself.flac\n"
     ]
    },
    {
     "name": "stderr",
     "output_type": "stream",
     "text": [
      "[out#0/mp3 @ 0x149e38ff0] video:741kB audio:12385kB subtitle:0kB other streams:0kB global headers:0kB muxing overhead: 0.010729%\n",
      "frame=    1 fps=0.3 q=-0.0 Lsize=   13127kB time=00:05:16.99 bitrate= 339.2kbits/s speed=86.4x    \n",
      "sh: -c: line 0: unexpected EOF while looking for matching `''\n",
      "sh: -c: line 1: syntax error: unexpected end of file\n",
      "100%|██████████| 9/9 [00:41<00:00,  4.56s/it]\n"
     ]
    }
   ],
   "source": [
    "for filepath in tqdm(filepaths):\n",
    "    file_extension = filepath.suffix\n",
    "    conv = MP3Converter(filepath, file_extension, \"mp3\")\n",
    "    conv.execute()\n",
    "# conv.make_dir()\n",
    "# print(\"WAV's converted to MP3's and stored in new directory!\")"
   ]
  },
  {
   "cell_type": "code",
   "execution_count": null,
   "metadata": {},
   "outputs": [],
   "source": []
  }
 ],
 "metadata": {
  "kernelspec": {
   "display_name": "circubat_eda",
   "language": "python",
   "name": "python3"
  },
  "language_info": {
   "codemirror_mode": {
    "name": "ipython",
    "version": 3
   },
   "file_extension": ".py",
   "mimetype": "text/x-python",
   "name": "python",
   "nbconvert_exporter": "python",
   "pygments_lexer": "ipython3",
   "version": "3.9.18"
  }
 },
 "nbformat": 4,
 "nbformat_minor": 2
}
